<svg width="1091" height="508" viewBox="0 0 1091 508" fill="none"
    xmlns="http://www.w3.org/2000/svg">
    <path d="M19 8C19 3.58172 22.5817 0 27 0H1083C1087.42 0 1091 3.58172 1091 8V368C1091 372.418 1087.42 376 1083 376H27C22.5817 376 19 372.418 19 368V8Z" fill="url(#paint0_linear_1_1946)"/>
    <path d="M869.493 212.032H770.028C756.088 212.032 743.111 207.784 733.49 200.064C723.501 192.051 718 180.938 718 168.77C718 156.406 723.122 145.746 732.813 137.939C740.437 131.791 750.839 127.61 762.415 125.984C766.033 117.641 771.984 110.244 779.714 104.485C789.829 97.0116 802.354 93.0606 815.935 93.0606C831.212 93.0018 845.914 98.2027 856.923 107.56C867.275 116.368 873.981 128.272 876.475 142.191C895.339 144.658 913.87 155.977 913.87 176.882C913.87 188.167 909.188 197.425 900.324 203.661C892.535 209.136 881.877 212.032 869.493 212.032Z" fill="#F6F7FA"/>
    <path d="M1024 300.8H959C949.89 300.8 941.41 298.014 935.123 292.951C928.595 287.696 925 280.408 925 272.429C925 264.321 928.348 257.33 934.68 252.21C939.663 248.179 946.46 245.437 954.025 244.371C956.389 238.9 960.278 234.049 965.33 230.272C971.94 225.371 980.125 222.78 989 222.78C998.983 222.742 1008.59 226.152 1015.79 232.289C1022.55 238.065 1026.93 245.871 1028.56 254.999C1040.89 256.617 1053 264.04 1053 277.749C1053 285.149 1049.94 291.22 1044.15 295.31C1039.06 298.9 1032.09 300.8 1024 300.8Z" fill="#F6F7FA"/>
    <path d="M200.653 288.972H101.188C87.2476 288.972 74.2712 284.724 64.6498 277.004C54.6612 268.991 49.16 257.877 49.16 245.71C49.16 233.346 54.2824 222.686 63.9727 214.879C71.5971 208.731 81.9989 204.55 93.5751 202.924C97.1925 194.581 103.144 187.184 110.874 181.425C120.989 173.952 133.514 170 147.095 170C162.372 169.942 177.074 175.143 188.083 184.5C198.435 193.308 205.141 205.212 207.635 219.13C226.499 221.598 245.03 232.917 245.03 253.822C245.03 265.107 240.348 274.365 231.484 280.6C223.695 286.076 213.037 288.972 200.653 288.972Z" fill="#F6F7FA"/>
    <path d="M952.25 47.8125V52.0833M952.25 120.417V124.688M990.688 86.25H986.417M918.083 86.25H913.812M979.429 113.429L976.409 110.409M928.091 62.0905L925.071 59.0706M979.43 59.0708L976.41 62.0907M928.091 110.41L925.071 113.43M969.333 86.25C969.333 95.6849 961.685 103.333 952.25 103.333C942.815 103.333 935.167 95.6849 935.167 86.25C935.167 76.8151 942.815 69.1667 952.25 69.1667C961.685 69.1667 969.333 76.8151 969.333 86.25Z" stroke="#F6F7FA" stroke-width="2.5" stroke-linecap="round" stroke-linejoin="round"/>
    <circle cx="952.25" cy="86.25" r="17.5" fill="white"/>
    <path d="M440 155H698L728 296H470L440 155Z" fill="#60636C"/>
    <path d="M631 219H429V376H631V219Z" fill="#F6F7FA"/>
    <path d="M691 165H608L631 276V376H714V276L691 165Z" fill="#9197A2"/>
    <path d="M703 331H651V376H703V331Z" fill="#60636C"/>
    <path d="M698 155H440L410 296H668L698 155Z" fill="#6E768C"/>
    <path d="M644.856 166H478.711L459.763 259.532H625.908L644.856 166Z" fill="#FFD966"/>
    <path d="M479.938 167.5L461.597 258.032H624.681L643.022 167.5H479.938Z" stroke="#F6F7FA" stroke-width="3"/>
    <path d="M617.419 166.613L598.801 258.724" stroke="#F6F7FA" stroke-width="3"/>
    <path d="M589.981 166.613L570.383 258.724" stroke="#F6F7FA" stroke-width="3"/>
    <path d="M561.564 166.613L542.946 258.724" stroke="#F6F7FA" stroke-width="3"/>
    <path d="M534.127 166.613L515.509 258.724" stroke="#F6F7FA" stroke-width="3"/>
    <path d="M506.689 166.613L487.091 258.724" stroke="#F6F7FA" stroke-width="3"/>
    <line y1="-1.5" x2="163.644" y2="-1.5" transform="matrix(-1 0 0 1 634.077 213.648)" stroke="#F6F7FA" stroke-width="3"/>
    <rect x="351.5" y="154" width="10" height="222" fill="#F6F7FA"/>
    <rect x="329" y="173.064" width="55" height="4.01356" fill="#F6F7FA"/>
    <rect x="329" y="185.105" width="55" height="4.01356" fill="#F6F7FA"/>
    <path id="flow-battery" d="M353.956 434.464V419.546C353.956 408.5 362.91 399.546 373.956 399.546H527.588C538.634 399.546 547.588 390.592 547.588 379.546V355.75" stroke="#24A37D" stroke-width="2.5" stroke-linejoin="round"/>
    <path id="flow-home" d="M756.044 434.464V419.546C756.044 408.5 747.09 399.546 736.044 399.546H582.412C571.366 399.546 562.412 390.592 562.412 379.546V355.75" stroke="#9E98E2" stroke-width="2.5"/>
    <path id="flow-solar" d="M358 117.536V191.569C358 202.615 366.954 211.569 378 211.569H529C540.046 211.569 549 220.523 549 231.569V342.286" stroke="#56A3F0" stroke-width="2.5" stroke-linejoin="round"/>
    <path id="flow-grid" d="M753 117.536V191.192C753 202.238 744.046 211.192 733 211.192H582C570.954 211.192 562 220.146 562 231.192V342.286" stroke="#DB835E" stroke-width="2.5"/>
    <mask id="path-28-inside-1_1_1946" fill="white">
        <path d="M303 52C303 47.5817 306.582 44 311 44H535C539.418 44 543 47.5817 543 52V116C543 120.418 539.418 124 535 124H311C306.582 124 303 120.418 303 116V52Z"/>
    </mask>
    <path d="M303 52C303 47.5817 306.582 44 311 44H535C539.418 44 543 47.5817 543 52V116C543 120.418 539.418 124 535 124H311C306.582 124 303 120.418 303 116V52Z" fill="white"/>
    <path d="M311 44V45H535V44V43H311V44ZM543 52H542V116H543H544V52H543ZM535 124V123H311V124V125H535V124ZM303 116H304V52H303H302V116H303ZM311 124V123C307.134 123 304 119.866 304 116H303H302C302 120.971 306.029 125 311 125V124ZM543 116H542C542 119.866 538.866 123 535 123V124V125C539.971 125 544 120.971 544 116H543ZM535 44V45C538.866 45 542 48.134 542 52H543H544C544 47.0294 539.971 43 535 43V44ZM311 44V43C306.029 43 302 47.0294 302 52H303H304C304 48.134 307.134 45 311 45V44Z" fill="#DFE0E3" mask="url(#path-28-inside-1_1_1946)"/>
    <path d="M343.8 84L347 97L334.2 84M343.8 84V77.5L339 71L334.2 77.5V84M343.8 84L331 97L334.2 84" stroke="#56A3F0" stroke-width="2" stroke-linecap="round" stroke-linejoin="round"/>
    <path d="M329 78H349" stroke="#56A3F0" stroke-width="2" stroke-linecap="round"/>
    <path d="M329 83H349" stroke="#56A3F0" stroke-width="2" stroke-linecap="round"/>
    <path d="M368.293 91V89.0966L373.342 84.1463C373.825 83.6586 374.228 83.2254 374.55 82.8466C374.872 82.4678 375.113 82.1009 375.274 81.7457C375.435 81.3906 375.516 81.0118 375.516 80.6094C375.516 80.1501 375.411 79.7571 375.203 79.4304C374.995 79.099 374.708 78.8433 374.344 78.6634C373.979 78.4834 373.565 78.3935 373.101 78.3935C372.623 78.3935 372.204 78.4929 371.844 78.6918C371.484 78.8859 371.205 79.1629 371.006 79.5227C370.812 79.8826 370.714 80.3111 370.714 80.8082H368.207C368.207 79.8849 368.418 79.0824 368.839 78.4006C369.261 77.7187 369.841 77.1908 370.58 76.8168C371.323 76.4427 372.175 76.2557 373.136 76.2557C374.112 76.2557 374.969 76.438 375.707 76.8026C376.446 77.1671 377.019 77.6667 377.426 78.3011C377.838 78.9356 378.044 79.66 378.044 80.4744C378.044 81.0189 377.94 81.554 377.732 82.0795C377.523 82.6051 377.156 83.1875 376.631 83.8267C376.11 84.4659 375.378 85.2401 374.436 86.1491L371.929 88.6989V88.7983H378.264V91H368.293ZM385.771 91.1989C384.824 91.1989 383.977 91.0213 383.229 90.6662C382.481 90.3063 381.886 89.8139 381.446 89.1889C381.01 88.5639 380.778 87.849 380.75 87.044H383.307C383.354 87.6406 383.612 88.1283 384.081 88.5071C384.55 88.8812 385.113 89.0682 385.771 89.0682C386.287 89.0682 386.747 88.9498 387.149 88.7131C387.552 88.4763 387.869 88.1473 388.101 87.7259C388.333 87.3045 388.446 86.8239 388.442 86.2841C388.446 85.7348 388.33 85.2472 388.094 84.821C387.857 84.3949 387.533 84.0611 387.121 83.8196C386.709 83.5734 386.235 83.4503 385.7 83.4503C385.265 83.4455 384.836 83.526 384.415 83.6918C383.993 83.8575 383.66 84.0753 383.413 84.3452L381.034 83.9545L381.794 76.4545H390.232V78.6562H383.974L383.555 82.5128H383.641C383.911 82.1955 384.292 81.9328 384.784 81.7244C385.277 81.5114 385.816 81.4048 386.403 81.4048C387.284 81.4048 388.07 81.6132 388.761 82.0298C389.453 82.4418 389.997 83.0099 390.395 83.7344C390.793 84.4588 390.991 85.2874 390.991 86.2202C390.991 87.1813 390.769 88.0384 390.324 88.7912C389.884 89.5393 389.27 90.1288 388.484 90.5597C387.703 90.9858 386.799 91.1989 385.771 91.1989ZM398.428 91.1989C397.481 91.1989 396.633 91.0213 395.885 90.6662C395.137 90.3063 394.543 89.8139 394.102 89.1889C393.667 88.5639 393.435 87.849 393.406 87.044H395.963C396.01 87.6406 396.268 88.1283 396.737 88.5071C397.206 88.8812 397.769 89.0682 398.428 89.0682C398.944 89.0682 399.403 88.9498 399.805 88.7131C400.208 88.4763 400.525 88.1473 400.757 87.7259C400.989 87.3045 401.103 86.8239 401.098 86.2841C401.103 85.7348 400.987 85.2472 400.75 84.821C400.513 84.3949 400.189 84.0611 399.777 83.8196C399.365 83.5734 398.892 83.4503 398.357 83.4503C397.921 83.4455 397.492 83.526 397.071 83.6918C396.65 83.8575 396.316 84.0753 396.07 84.3452L393.69 83.9545L394.45 76.4545H402.888V78.6562H396.631L396.212 82.5128H396.297C396.567 82.1955 396.948 81.9328 397.44 81.7244C397.933 81.5114 398.473 81.4048 399.06 81.4048C399.94 81.4048 400.726 81.6132 401.418 82.0298C402.109 82.4418 402.653 83.0099 403.051 83.7344C403.449 84.4588 403.648 85.2874 403.648 86.2202C403.648 87.1813 403.425 88.0384 402.98 88.7912C402.54 89.5393 401.927 90.1288 401.141 90.5597C400.359 90.9858 399.455 91.1989 398.428 91.1989ZM407.151 91.1562C406.72 91.1562 406.351 91.0047 406.043 90.7017C405.735 90.3987 405.584 90.0294 405.588 89.5938C405.584 89.1676 405.735 88.803 406.043 88.5C406.351 88.197 406.72 88.0455 407.151 88.0455C407.568 88.0455 407.93 88.197 408.238 88.5C408.55 88.803 408.709 89.1676 408.713 89.5938C408.709 89.8826 408.633 90.1454 408.486 90.3821C408.344 90.6188 408.155 90.8082 407.918 90.9503C407.686 91.0876 407.43 91.1562 407.151 91.1562ZM416.1 91.1989C415.404 91.1941 414.724 91.0734 414.061 90.8366C413.399 90.5952 412.802 90.2045 412.272 89.6648C411.741 89.1203 411.32 88.3982 411.007 87.4986C410.695 86.5942 410.541 85.4744 410.546 84.1392C410.546 82.8939 410.678 81.7836 410.944 80.8082C411.209 79.8329 411.59 79.009 412.087 78.3366C412.584 77.6596 413.183 77.1435 413.884 76.7884C414.589 76.4332 415.378 76.2557 416.249 76.2557C417.163 76.2557 417.972 76.4356 418.678 76.7955C419.388 77.1553 419.961 77.6477 420.397 78.2727C420.832 78.893 421.102 79.5938 421.206 80.375H418.614C418.481 79.8163 418.209 79.3712 417.797 79.0398C417.39 78.7036 416.874 78.5355 416.249 78.5355C415.24 78.5355 414.464 78.9735 413.919 79.8494C413.38 80.7254 413.107 81.928 413.103 83.4574H413.202C413.434 83.0407 413.735 82.6832 414.104 82.3849C414.473 82.0866 414.89 81.857 415.354 81.696C415.823 81.5303 416.318 81.4474 416.838 81.4474C417.691 81.4474 418.455 81.651 419.132 82.0582C419.814 82.4654 420.354 83.0265 420.752 83.7415C421.15 84.4517 421.346 85.2661 421.341 86.1847C421.346 87.1411 421.128 88.0005 420.688 88.7628C420.248 89.5204 419.634 90.117 418.848 90.5526C418.062 90.9882 417.146 91.2036 416.1 91.1989ZM416.086 89.0682C416.602 89.0682 417.063 88.9427 417.471 88.6918C417.878 88.4408 418.2 88.1023 418.436 87.6761C418.673 87.25 418.789 86.7718 418.784 86.2415C418.789 85.7206 418.676 85.2495 418.444 84.8281C418.216 84.4067 417.901 84.0729 417.499 83.8267C417.096 83.5805 416.637 83.4574 416.121 83.4574C415.738 83.4574 415.38 83.5308 415.049 83.6776C414.717 83.8243 414.428 84.0279 414.182 84.2884C413.936 84.544 413.742 84.8423 413.6 85.1832C413.462 85.5194 413.391 85.8793 413.387 86.2628C413.391 86.7694 413.51 87.2358 413.742 87.6619C413.974 88.0881 414.293 88.429 414.701 88.6847C415.108 88.9403 415.569 89.0682 416.086 89.0682ZM428.799 91.1989C427.852 91.1989 427.004 91.0213 426.256 90.6662C425.508 90.3063 424.914 89.8139 424.473 89.1889C424.038 88.5639 423.806 87.849 423.777 87.044H426.334C426.382 87.6406 426.64 88.1283 427.108 88.5071C427.577 88.8812 428.141 89.0682 428.799 89.0682C429.315 89.0682 429.774 88.9498 430.176 88.7131C430.579 88.4763 430.896 88.1473 431.128 87.7259C431.36 87.3045 431.474 86.8239 431.469 86.2841C431.474 85.7348 431.358 85.2472 431.121 84.821C430.884 84.3949 430.56 84.0611 430.148 83.8196C429.736 83.5734 429.263 83.4503 428.728 83.4503C428.292 83.4455 427.864 83.526 427.442 83.6918C427.021 83.8575 426.687 84.0753 426.441 84.3452L424.061 83.9545L424.821 76.4545H433.259V78.6562H427.002L426.583 82.5128H426.668C426.938 82.1955 427.319 81.9328 427.811 81.7244C428.304 81.5114 428.844 81.4048 429.431 81.4048C430.311 81.4048 431.097 81.6132 431.789 82.0298C432.48 82.4418 433.025 83.0099 433.422 83.7344C433.82 84.4588 434.019 85.2874 434.019 86.2202C434.019 87.1813 433.796 88.0384 433.351 88.7912C432.911 89.5393 432.298 90.1288 431.512 90.5597C430.73 90.9858 429.826 91.1989 428.799 91.1989ZM443.731 87.5767L443.724 84.473H444.136L448.056 80.0909H451.061L446.238 85.4602H445.706L443.731 87.5767ZM441.387 91V76.4545H443.958V91H441.387ZM448.234 91L444.683 86.0355L446.416 84.2244L451.309 91H448.234ZM455.949 91L451.844 76.4545H454.678L457.298 87.1435H457.433L460.232 76.4545H462.81L465.615 87.1506H465.743L468.364 76.4545H471.197L467.092 91H464.493L461.581 80.794H461.467L458.548 91H455.949Z" fill="#1A1C22"/>
    <mask id="path-34-inside-2_1_1946" fill="white">
        <path d="M567 52C567 47.5817 570.582 44 575 44H799C803.418 44 807 47.5817 807 52V116C807 120.418 803.418 124 799 124H575C570.582 124 567 120.418 567 116V52Z"/>
    </mask>
    <path d="M567 52C567 47.5817 570.582 44 575 44H799C803.418 44 807 47.5817 807 52V116C807 120.418 803.418 124 799 124H575C570.582 124 567 120.418 567 116V52Z" fill="white"/>
    <path d="M575 44V45H799V44V43H575V44ZM807 52H806V116H807H808V52H807ZM799 124V123H575V124V125H799V124ZM567 116H568V52H567H566V116H567ZM575 124V123C571.134 123 568 119.866 568 116H567H566C566 120.971 570.029 125 575 125V124ZM807 116H806C806 119.866 802.866 123 799 123V124V125C803.971 125 808 120.971 808 116H807ZM799 44V45C802.866 45 806 48.134 806 52H807H808C808 47.0294 803.971 43 799 43V44ZM575 44V43C570.029 43 566 47.0294 566 52H567H568C568 48.134 571.134 45 575 45V44Z" fill="#DFE0E3" mask="url(#path-34-inside-2_1_1946)"/>
    <path d="M602.954 71.9999V75.2827" stroke="#DB835E" stroke-width="2" stroke-linecap="round" stroke-linejoin="round"/>
    <path d="M611.452 75.4827L609.134 77.8015" stroke="#DB835E" stroke-width="2" stroke-linecap="round" stroke-linejoin="round"/>
    <path d="M615 83.9541H611.717" stroke="#DB835E" stroke-width="2" stroke-linecap="round" stroke-linejoin="round"/>
    <path d="M611.517 92.4522L609.199 90.1334" stroke="#DB835E" stroke-width="2" stroke-linecap="round" stroke-linejoin="round"/>
    <path d="M603.046 95.9996V92.7168" stroke="#DB835E" stroke-width="2" stroke-linecap="round" stroke-linejoin="round"/>
    <path d="M594.548 92.5173L596.867 90.1985" stroke="#DB835E" stroke-width="2" stroke-linecap="round" stroke-linejoin="round"/>
    <path d="M591 84.0455H594.283" stroke="#DB835E" stroke-width="2" stroke-linecap="round" stroke-linejoin="round"/>
    <path d="M594.483 75.5477L596.801 77.8665" stroke="#DB835E" stroke-width="2" stroke-linecap="round" stroke-linejoin="round"/>
    <path d="M608.586 83.9977C608.586 87.0807 606.085 89.5819 603.002 89.5819C599.919 89.5819 597.418 87.0807 597.418 83.9977C597.418 80.9147 599.919 78.4135 603.002 78.4135C606.085 78.4135 608.586 80.9147 608.586 83.9977Z" stroke="#DB835E" stroke-width="2" stroke-linecap="round" stroke-linejoin="round"/>
    <path d="M632.293 91V89.0966L637.342 84.1463C637.825 83.6586 638.228 83.2254 638.55 82.8466C638.872 82.4678 639.113 82.1009 639.274 81.7457C639.435 81.3906 639.516 81.0118 639.516 80.6094C639.516 80.1501 639.411 79.7571 639.203 79.4304C638.995 79.099 638.708 78.8433 638.344 78.6634C637.979 78.4834 637.565 78.3935 637.101 78.3935C636.623 78.3935 636.204 78.4929 635.844 78.6918C635.484 78.8859 635.205 79.1629 635.006 79.5227C634.812 79.8826 634.714 80.3111 634.714 80.8082H632.207C632.207 79.8849 632.418 79.0824 632.839 78.4006C633.261 77.7187 633.841 77.1908 634.58 76.8168C635.323 76.4427 636.175 76.2557 637.136 76.2557C638.112 76.2557 638.969 76.438 639.707 76.8026C640.446 77.1671 641.019 77.6667 641.426 78.3011C641.838 78.9356 642.044 79.66 642.044 80.4744C642.044 81.0189 641.94 81.554 641.732 82.0795C641.523 82.6051 641.156 83.1875 640.631 83.8267C640.11 84.4659 639.378 85.2401 638.436 86.1491L635.929 88.6989V88.7983H642.264V91H632.293ZM649.771 91.1989C648.824 91.1989 647.977 91.0213 647.229 90.6662C646.481 90.3063 645.886 89.8139 645.446 89.1889C645.01 88.5639 644.778 87.849 644.75 87.044H647.307C647.354 87.6406 647.612 88.1283 648.081 88.5071C648.55 88.8812 649.113 89.0682 649.771 89.0682C650.287 89.0682 650.747 88.9498 651.149 88.7131C651.552 88.4763 651.869 88.1473 652.101 87.7259C652.333 87.3045 652.446 86.8239 652.442 86.2841C652.446 85.7348 652.33 85.2472 652.094 84.821C651.857 84.3949 651.533 84.0611 651.121 83.8196C650.709 83.5734 650.235 83.4503 649.7 83.4503C649.265 83.4455 648.836 83.526 648.415 83.6918C647.993 83.8575 647.66 84.0753 647.413 84.3452L645.034 83.9545L645.794 76.4545H654.232V78.6562H647.974L647.555 82.5128H647.641C647.911 82.1955 648.292 81.9328 648.784 81.7244C649.277 81.5114 649.816 81.4048 650.403 81.4048C651.284 81.4048 652.07 81.6132 652.761 82.0298C653.453 82.4418 653.997 83.0099 654.395 83.7344C654.793 84.4588 654.991 85.2874 654.991 86.2202C654.991 87.1813 654.769 88.0384 654.324 88.7912C653.884 89.5393 653.27 90.1288 652.484 90.5597C651.703 90.9858 650.799 91.1989 649.771 91.1989ZM662.428 91.1989C661.481 91.1989 660.633 91.0213 659.885 90.6662C659.137 90.3063 658.543 89.8139 658.102 89.1889C657.667 88.5639 657.435 87.849 657.406 87.044H659.963C660.01 87.6406 660.268 88.1283 660.737 88.5071C661.206 88.8812 661.769 89.0682 662.428 89.0682C662.944 89.0682 663.403 88.9498 663.805 88.7131C664.208 88.4763 664.525 88.1473 664.757 87.7259C664.989 87.3045 665.103 86.8239 665.098 86.2841C665.103 85.7348 664.987 85.2472 664.75 84.821C664.513 84.3949 664.189 84.0611 663.777 83.8196C663.365 83.5734 662.892 83.4503 662.357 83.4503C661.921 83.4455 661.492 83.526 661.071 83.6918C660.65 83.8575 660.316 84.0753 660.07 84.3452L657.69 83.9545L658.45 76.4545H666.888V78.6562H660.631L660.212 82.5128H660.297C660.567 82.1955 660.948 81.9328 661.44 81.7244C661.933 81.5114 662.473 81.4048 663.06 81.4048C663.94 81.4048 664.726 81.6132 665.418 82.0298C666.109 82.4418 666.653 83.0099 667.051 83.7344C667.449 84.4588 667.648 85.2874 667.648 86.2202C667.648 87.1813 667.425 88.0384 666.98 88.7912C666.54 89.5393 665.927 90.1288 665.141 90.5597C664.359 90.9858 663.455 91.1989 662.428 91.1989ZM671.151 91.1562C670.72 91.1562 670.351 91.0047 670.043 90.7017C669.735 90.3987 669.584 90.0294 669.588 89.5938C669.584 89.1676 669.735 88.803 670.043 88.5C670.351 88.197 670.72 88.0455 671.151 88.0455C671.568 88.0455 671.93 88.197 672.238 88.5C672.55 88.803 672.709 89.1676 672.713 89.5938C672.709 89.8826 672.633 90.1454 672.486 90.3821C672.344 90.6188 672.155 90.8082 671.918 90.9503C671.686 91.0876 671.43 91.1562 671.151 91.1562ZM680.1 91.1989C679.404 91.1941 678.724 91.0734 678.061 90.8366C677.399 90.5952 676.802 90.2045 676.272 89.6648C675.741 89.1203 675.32 88.3982 675.007 87.4986C674.695 86.5942 674.541 85.4744 674.546 84.1392C674.546 82.8939 674.678 81.7836 674.944 80.8082C675.209 79.8329 675.59 79.009 676.087 78.3366C676.584 77.6596 677.183 77.1435 677.884 76.7884C678.589 76.4332 679.378 76.2557 680.249 76.2557C681.163 76.2557 681.972 76.4356 682.678 76.7955C683.388 77.1553 683.961 77.6477 684.397 78.2727C684.832 78.893 685.102 79.5938 685.206 80.375H682.614C682.481 79.8163 682.209 79.3712 681.797 79.0398C681.39 78.7036 680.874 78.5355 680.249 78.5355C679.24 78.5355 678.464 78.9735 677.919 79.8494C677.38 80.7254 677.107 81.928 677.103 83.4574H677.202C677.434 83.0407 677.735 82.6832 678.104 82.3849C678.473 82.0866 678.89 81.857 679.354 81.696C679.823 81.5303 680.318 81.4474 680.838 81.4474C681.691 81.4474 682.455 81.651 683.132 82.0582C683.814 82.4654 684.354 83.0265 684.752 83.7415C685.15 84.4517 685.346 85.2661 685.341 86.1847C685.346 87.1411 685.128 88.0005 684.688 88.7628C684.248 89.5204 683.634 90.117 682.848 90.5526C682.062 90.9882 681.146 91.2036 680.1 91.1989ZM680.086 89.0682C680.602 89.0682 681.063 88.9427 681.471 88.6918C681.878 88.4408 682.2 88.1023 682.436 87.6761C682.673 87.25 682.789 86.7718 682.784 86.2415C682.789 85.7206 682.676 85.2495 682.444 84.8281C682.216 84.4067 681.901 84.0729 681.499 83.8267C681.096 83.5805 680.637 83.4574 680.121 83.4574C679.738 83.4574 679.38 83.5308 679.049 83.6776C678.717 83.8243 678.428 84.0279 678.182 84.2884C677.936 84.544 677.742 84.8423 677.6 85.1832C677.462 85.5194 677.391 85.8793 677.387 86.2628C677.391 86.7694 677.51 87.2358 677.742 87.6619C677.974 88.0881 678.293 88.429 678.701 88.6847C679.108 88.9403 679.569 89.0682 680.086 89.0682ZM692.799 91.1989C691.852 91.1989 691.004 91.0213 690.256 90.6662C689.508 90.3063 688.914 89.8139 688.473 89.1889C688.038 88.5639 687.806 87.849 687.777 87.044H690.334C690.382 87.6406 690.64 88.1283 691.108 88.5071C691.577 88.8812 692.141 89.0682 692.799 89.0682C693.315 89.0682 693.774 88.9498 694.176 88.7131C694.579 88.4763 694.896 88.1473 695.128 87.7259C695.36 87.3045 695.474 86.8239 695.469 86.2841C695.474 85.7348 695.358 85.2472 695.121 84.821C694.884 84.3949 694.56 84.0611 694.148 83.8196C693.736 83.5734 693.263 83.4503 692.728 83.4503C692.292 83.4455 691.864 83.526 691.442 83.6918C691.021 83.8575 690.687 84.0753 690.441 84.3452L688.061 83.9545L688.821 76.4545H697.259V78.6562H691.002L690.583 82.5128H690.668C690.938 82.1955 691.319 81.9328 691.811 81.7244C692.304 81.5114 692.844 81.4048 693.431 81.4048C694.311 81.4048 695.097 81.6132 695.789 82.0298C696.48 82.4418 697.025 83.0099 697.422 83.7344C697.82 84.4588 698.019 85.2874 698.019 86.2202C698.019 87.1813 697.796 88.0384 697.351 88.7912C696.911 89.5393 696.298 90.1288 695.512 90.5597C694.73 90.9858 693.826 91.1989 692.799 91.1989ZM707.731 87.5767L707.724 84.473H708.136L712.056 80.0909H715.061L710.238 85.4602H709.706L707.731 87.5767ZM705.387 91V76.4545H707.958V91H705.387ZM712.234 91L708.683 86.0355L710.416 84.2244L715.309 91H712.234ZM719.949 91L715.844 76.4545H718.678L721.298 87.1435H721.433L724.232 76.4545H726.81L729.615 87.1506H729.743L732.364 76.4545H735.197L731.092 91H728.493L725.581 80.794H725.467L722.548 91H719.949Z" fill="#1A1C22"/>
    <mask id="path-46-inside-3_1_1946" fill="white">
        <path d="M303 436C303 431.582 306.582 428 311 428H535C539.418 428 543 431.582 543 436V500C543 504.418 539.418 508 535 508H311C306.582 508 303 504.418 303 500V436Z"/>
    </mask>
    <path d="M303 436C303 431.582 306.582 428 311 428H535C539.418 428 543 431.582 543 436V500C543 504.418 539.418 508 535 508H311C306.582 508 303 504.418 303 500V436Z" fill="white"/>
    <path d="M311 428V429H535V428V427H311V428ZM543 436H542V500H543H544V436H543ZM535 508V507H311V508V509H535V508ZM303 500H304V436H303H302V500H303ZM311 508V507C307.134 507 304 503.866 304 500H303H302C302 504.971 306.029 509 311 509V508ZM543 500H542C542 503.866 538.866 507 535 507V508V509C539.971 509 544 504.971 544 500H543ZM535 428V429C538.866 429 542 432.134 542 436H543H544C544 431.029 539.971 427 535 427V428ZM311 428V427C306.029 427 302 431.029 302 436H303H304C304 432.134 307.134 429 311 429V428Z" fill="#DFE0E3" mask="url(#path-46-inside-3_1_1946)"/>
    <path d="M329 465V481H349V465" stroke="#24A37D" stroke-width="2" stroke-linecap="round" stroke-linejoin="round"/>
    <path d="M351 467L339 455L327 467" stroke="#24A37D" stroke-width="2" stroke-linecap="round" stroke-linejoin="round"/>
    <path d="M339 473V472C338.448 472 338 472.448 338 473H339ZM345 473H346C346 472.448 345.552 472 345 472V473ZM345 481V482C345.552 482 346 481.552 346 481H345ZM339 481H338C338 481.552 338.448 482 339 482V481ZM339 473V474H345V473V472H339V473ZM345 473H344V481H345H346V473H345ZM345 481V480H339V481V482H345V481ZM339 481H340V473H339H338V481H339Z" fill="#24A37D"/>
    <path d="M333 467V466C332.448 466 332 466.448 332 467H333ZM337 467H338C338 466.448 337.552 466 337 466V467ZM337 471V472C337.552 472 338 471.552 338 471H337ZM333 471H332C332 471.552 332.448 472 333 472V471ZM333 467V468H337V467V466H333V467ZM337 467H336V471H337H338V467H337ZM337 471V470H333V471V472H337V471ZM333 471H334V467H333H332V471H333Z" fill="#24A37D"/>
    <path d="M368.293 475V473.097L373.342 468.146C373.825 467.659 374.228 467.225 374.55 466.847C374.872 466.468 375.113 466.101 375.274 465.746C375.435 465.391 375.516 465.012 375.516 464.609C375.516 464.15 375.411 463.757 375.203 463.43C374.995 463.099 374.708 462.843 374.344 462.663C373.979 462.483 373.565 462.393 373.101 462.393C372.623 462.393 372.204 462.493 371.844 462.692C371.484 462.886 371.205 463.163 371.006 463.523C370.812 463.883 370.714 464.311 370.714 464.808H368.207C368.207 463.885 368.418 463.082 368.839 462.401C369.261 461.719 369.841 461.191 370.58 460.817C371.323 460.443 372.175 460.256 373.136 460.256C374.112 460.256 374.969 460.438 375.707 460.803C376.446 461.167 377.019 461.667 377.426 462.301C377.838 462.936 378.044 463.66 378.044 464.474C378.044 465.019 377.94 465.554 377.732 466.08C377.523 466.605 377.156 467.187 376.631 467.827C376.11 468.466 375.378 469.24 374.436 470.149L371.929 472.699V472.798H378.264V475H368.293ZM385.771 475.199C384.824 475.199 383.977 475.021 383.229 474.666C382.481 474.306 381.886 473.814 381.446 473.189C381.01 472.564 380.778 471.849 380.75 471.044H383.307C383.354 471.641 383.612 472.128 384.081 472.507C384.55 472.881 385.113 473.068 385.771 473.068C386.287 473.068 386.747 472.95 387.149 472.713C387.552 472.476 387.869 472.147 388.101 471.726C388.333 471.304 388.446 470.824 388.442 470.284C388.446 469.735 388.33 469.247 388.094 468.821C387.857 468.395 387.533 468.061 387.121 467.82C386.709 467.573 386.235 467.45 385.7 467.45C385.265 467.446 384.836 467.526 384.415 467.692C383.993 467.857 383.66 468.075 383.413 468.345L381.034 467.955L381.794 460.455H390.232V462.656H383.974L383.555 466.513H383.641C383.911 466.196 384.292 465.933 384.784 465.724C385.277 465.511 385.816 465.405 386.403 465.405C387.284 465.405 388.07 465.613 388.761 466.03C389.453 466.442 389.997 467.01 390.395 467.734C390.793 468.459 390.991 469.287 390.991 470.22C390.991 471.181 390.769 472.038 390.324 472.791C389.884 473.539 389.27 474.129 388.484 474.56C387.703 474.986 386.799 475.199 385.771 475.199ZM398.428 475.199C397.481 475.199 396.633 475.021 395.885 474.666C395.137 474.306 394.543 473.814 394.102 473.189C393.667 472.564 393.435 471.849 393.406 471.044H395.963C396.01 471.641 396.268 472.128 396.737 472.507C397.206 472.881 397.769 473.068 398.428 473.068C398.944 473.068 399.403 472.95 399.805 472.713C400.208 472.476 400.525 472.147 400.757 471.726C400.989 471.304 401.103 470.824 401.098 470.284C401.103 469.735 400.987 469.247 400.75 468.821C400.513 468.395 400.189 468.061 399.777 467.82C399.365 467.573 398.892 467.45 398.357 467.45C397.921 467.446 397.492 467.526 397.071 467.692C396.65 467.857 396.316 468.075 396.07 468.345L393.69 467.955L394.45 460.455H402.888V462.656H396.631L396.212 466.513H396.297C396.567 466.196 396.948 465.933 397.44 465.724C397.933 465.511 398.473 465.405 399.06 465.405C399.94 465.405 400.726 465.613 401.418 466.03C402.109 466.442 402.653 467.01 403.051 467.734C403.449 468.459 403.648 469.287 403.648 470.22C403.648 471.181 403.425 472.038 402.98 472.791C402.54 473.539 401.927 474.129 401.141 474.56C400.359 474.986 399.455 475.199 398.428 475.199ZM407.151 475.156C406.72 475.156 406.351 475.005 406.043 474.702C405.735 474.399 405.584 474.029 405.588 473.594C405.584 473.168 405.735 472.803 406.043 472.5C406.351 472.197 406.72 472.045 407.151 472.045C407.568 472.045 407.93 472.197 408.238 472.5C408.55 472.803 408.709 473.168 408.713 473.594C408.709 473.883 408.633 474.145 408.486 474.382C408.344 474.619 408.155 474.808 407.918 474.95C407.686 475.088 407.43 475.156 407.151 475.156ZM416.1 475.199C415.404 475.194 414.724 475.073 414.061 474.837C413.399 474.595 412.802 474.205 412.272 473.665C411.741 473.12 411.32 472.398 411.007 471.499C410.695 470.594 410.541 469.474 410.546 468.139C410.546 466.894 410.678 465.784 410.944 464.808C411.209 463.833 411.59 463.009 412.087 462.337C412.584 461.66 413.183 461.143 413.884 460.788C414.589 460.433 415.378 460.256 416.249 460.256C417.163 460.256 417.972 460.436 418.678 460.795C419.388 461.155 419.961 461.648 420.397 462.273C420.832 462.893 421.102 463.594 421.206 464.375H418.614C418.481 463.816 418.209 463.371 417.797 463.04C417.39 462.704 416.874 462.536 416.249 462.536C415.24 462.536 414.464 462.973 413.919 463.849C413.38 464.725 413.107 465.928 413.103 467.457H413.202C413.434 467.041 413.735 466.683 414.104 466.385C414.473 466.087 414.89 465.857 415.354 465.696C415.823 465.53 416.318 465.447 416.838 465.447C417.691 465.447 418.455 465.651 419.132 466.058C419.814 466.465 420.354 467.027 420.752 467.741C421.15 468.452 421.346 469.266 421.341 470.185C421.346 471.141 421.128 472 420.688 472.763C420.248 473.52 419.634 474.117 418.848 474.553C418.062 474.988 417.146 475.204 416.1 475.199ZM416.086 473.068C416.602 473.068 417.063 472.943 417.471 472.692C417.878 472.441 418.2 472.102 418.436 471.676C418.673 471.25 418.789 470.772 418.784 470.241C418.789 469.721 418.676 469.25 418.444 468.828C418.216 468.407 417.901 468.073 417.499 467.827C417.096 467.58 416.637 467.457 416.121 467.457C415.738 467.457 415.38 467.531 415.049 467.678C414.717 467.824 414.428 468.028 414.182 468.288C413.936 468.544 413.742 468.842 413.6 469.183C413.462 469.519 413.391 469.879 413.387 470.263C413.391 470.769 413.51 471.236 413.742 471.662C413.974 472.088 414.293 472.429 414.701 472.685C415.108 472.94 415.569 473.068 416.086 473.068ZM428.799 475.199C427.852 475.199 427.004 475.021 426.256 474.666C425.508 474.306 424.914 473.814 424.473 473.189C424.038 472.564 423.806 471.849 423.777 471.044H426.334C426.382 471.641 426.64 472.128 427.108 472.507C427.577 472.881 428.141 473.068 428.799 473.068C429.315 473.068 429.774 472.95 430.176 472.713C430.579 472.476 430.896 472.147 431.128 471.726C431.36 471.304 431.474 470.824 431.469 470.284C431.474 469.735 431.358 469.247 431.121 468.821C430.884 468.395 430.56 468.061 430.148 467.82C429.736 467.573 429.263 467.45 428.728 467.45C428.292 467.446 427.864 467.526 427.442 467.692C427.021 467.857 426.687 468.075 426.441 468.345L424.061 467.955L424.821 460.455H433.259V462.656H427.002L426.583 466.513H426.668C426.938 466.196 427.319 465.933 427.811 465.724C428.304 465.511 428.844 465.405 429.431 465.405C430.311 465.405 431.097 465.613 431.789 466.03C432.48 466.442 433.025 467.01 433.422 467.734C433.82 468.459 434.019 469.287 434.019 470.22C434.019 471.181 433.796 472.038 433.351 472.791C432.911 473.539 432.298 474.129 431.512 474.56C430.73 474.986 429.826 475.199 428.799 475.199ZM443.731 471.577L443.724 468.473H444.136L448.056 464.091H451.061L446.238 469.46H445.706L443.731 471.577ZM441.387 475V460.455H443.958V475H441.387ZM448.234 475L444.683 470.036L446.416 468.224L451.309 475H448.234ZM455.949 475L451.844 460.455H454.678L457.298 471.143H457.433L460.232 460.455H462.81L465.615 471.151H465.743L468.364 460.455H471.197L467.092 475H464.493L461.581 464.794H461.467L458.548 475H455.949Z" fill="#1A1C22"/>
    <mask id="path-53-inside-4_1_1946" fill="white">
        <path d="M567 436C567 431.582 570.582 428 575 428H799C803.418 428 807 431.582 807 436V500C807 504.418 803.418 508 799 508H575C570.582 508 567 504.418 567 500V436Z"/>
    </mask>
    <path d="M567 436C567 431.582 570.582 428 575 428H799C803.418 428 807 431.582 807 436V500C807 504.418 803.418 508 799 508H575C570.582 508 567 504.418 567 500V436Z" fill="white"/>
    <path d="M575 428V429H799V428V427H575V428ZM807 436H806V500H807H808V436H807ZM799 508V507H575V508V509H799V508ZM567 500H568V436H567H566V500H567ZM575 508V507C571.134 507 568 503.866 568 500H567H566C566 504.971 570.029 509 575 509V508ZM807 500H806C806 503.866 802.866 507 799 507V508V509C803.971 509 808 504.971 808 500H807ZM799 428V429C802.866 429 806 432.134 806 436H807H808C808 431.029 803.971 427 799 427V428ZM575 428V427C570.029 427 566 431.029 566 436H567H568C568 432.134 571.134 429 575 429V428Z" fill="#DFE0E3" mask="url(#path-53-inside-4_1_1946)"/>
    <path d="M615 458V457V458ZM619 462H620H619ZM619 464H618V465H619V464ZM619 472V471H618V472H619ZM615 478V479V478ZM589 478V479V478ZM585 474H584H585ZM585 462H584H585ZM589 458V457V458ZM615 458V459C616.657 459 618 460.343 618 462H619H620C620 459.239 617.761 457 615 457V458ZM619 462H618V464H619H620V462H619ZM619 464V465C619.552 465 620 465.448 620 466H621H622C622 464.343 620.657 463 619 463V464ZM621 466H620V470H621H622V466H621ZM621 470H620C620 470.552 619.552 471 619 471V472V473C620.657 473 622 471.657 622 470H621ZM619 472H618V474H619H620V472H619ZM619 474H618C618 475.657 616.657 477 615 477V478V479C617.761 479 620 476.761 620 474H619ZM615 478V477H589V478V479H615V478ZM589 478V477C587.343 477 586 475.657 586 474H585H584C584 476.761 586.239 479 589 479V478ZM585 474H586V462H585H584V474H585ZM585 462H586C586 460.343 587.343 459 589 459V458V457C586.239 457 584 459.239 584 462H585ZM589 458V459H615V458V457H589V458Z" fill="#9E98E2"/>
    <path d="M591.345 464V472H589.896V465.41H589.849L587.978 466.605V465.277L589.966 464H591.345ZM596.333 472.152C595.69 472.152 595.138 471.99 594.677 471.664C594.218 471.336 593.866 470.863 593.618 470.246C593.373 469.626 593.251 468.88 593.251 468.008C593.254 467.135 593.377 466.393 593.622 465.781C593.869 465.167 594.222 464.698 594.681 464.375C595.142 464.052 595.692 463.891 596.333 463.891C596.974 463.891 597.524 464.052 597.985 464.375C598.446 464.698 598.799 465.167 599.044 465.781C599.291 466.396 599.415 467.138 599.415 468.008C599.415 468.883 599.291 469.63 599.044 470.25C598.799 470.867 598.446 471.339 597.985 471.664C597.527 471.99 596.976 472.152 596.333 472.152ZM596.333 470.93C596.833 470.93 597.228 470.684 597.517 470.191C597.808 469.697 597.954 468.969 597.954 468.008C597.954 467.372 597.888 466.839 597.755 466.406C597.622 465.974 597.435 465.648 597.192 465.43C596.95 465.208 596.664 465.098 596.333 465.098C595.836 465.098 595.442 465.345 595.153 465.84C594.864 466.332 594.718 467.055 594.716 468.008C594.713 468.646 594.777 469.182 594.907 469.617C595.04 470.052 595.228 470.38 595.47 470.602C595.712 470.82 596 470.93 596.333 470.93ZM603.67 472.152C603.027 472.152 602.475 471.99 602.014 471.664C601.555 471.336 601.202 470.863 600.955 470.246C600.71 469.626 600.588 468.88 600.588 468.008C600.59 467.135 600.714 466.393 600.959 465.781C601.206 465.167 601.559 464.698 602.018 464.375C602.479 464.052 603.029 463.891 603.67 463.891C604.311 463.891 604.861 464.052 605.322 464.375C605.783 464.698 606.136 465.167 606.381 465.781C606.628 466.396 606.752 467.138 606.752 468.008C606.752 468.883 606.628 469.63 606.381 470.25C606.136 470.867 605.783 471.339 605.322 471.664C604.864 471.99 604.313 472.152 603.67 472.152ZM603.67 470.93C604.17 470.93 604.564 470.684 604.854 470.191C605.145 469.697 605.291 468.969 605.291 468.008C605.291 467.372 605.225 466.839 605.092 466.406C604.959 465.974 604.771 465.648 604.529 465.43C604.287 465.208 604.001 465.098 603.67 465.098C603.173 465.098 602.779 465.345 602.49 465.84C602.201 466.332 602.055 467.055 602.053 468.008C602.05 468.646 602.114 469.182 602.244 469.617C602.377 470.052 602.564 470.38 602.807 470.602C603.049 470.82 603.337 470.93 603.67 470.93ZM612.327 470.5V470.078C612.327 469.768 612.392 469.483 612.522 469.223C612.655 468.962 612.848 468.753 613.101 468.594C613.353 468.435 613.659 468.355 614.019 468.355C614.388 468.355 614.698 468.435 614.948 468.594C615.198 468.75 615.387 468.958 615.515 469.219C615.645 469.479 615.71 469.766 615.71 470.078V470.5C615.71 470.81 615.645 471.095 615.515 471.355C615.384 471.616 615.193 471.826 614.94 471.984C614.69 472.143 614.383 472.223 614.019 472.223C613.654 472.223 613.345 472.143 613.093 471.984C612.84 471.826 612.649 471.616 612.519 471.355C612.391 471.095 612.327 470.81 612.327 470.5ZM613.347 470.078V470.5C613.347 470.706 613.396 470.895 613.495 471.066C613.594 471.238 613.769 471.324 614.019 471.324C614.271 471.324 614.444 471.24 614.538 471.07C614.634 470.898 614.683 470.708 614.683 470.5V470.078C614.683 469.87 614.637 469.68 614.546 469.508C614.455 469.333 614.279 469.246 614.019 469.246C613.774 469.246 613.601 469.333 613.499 469.508C613.397 469.68 613.347 469.87 613.347 470.078ZM608.261 465.922V465.5C608.261 465.187 608.327 464.901 608.46 464.641C608.593 464.38 608.785 464.172 609.038 464.016C609.291 463.857 609.597 463.777 609.956 463.777C610.323 463.777 610.632 463.857 610.882 464.016C611.134 464.172 611.325 464.38 611.452 464.641C611.58 464.901 611.644 465.187 611.644 465.5V465.922C611.644 466.234 611.578 466.521 611.448 466.781C611.321 467.039 611.131 467.246 610.878 467.402C610.625 467.559 610.318 467.637 609.956 467.637C609.589 467.637 609.279 467.559 609.026 467.402C608.776 467.246 608.586 467.038 608.456 466.777C608.326 466.517 608.261 466.232 608.261 465.922ZM609.288 465.5V465.922C609.288 466.13 609.336 466.32 609.433 466.492C609.532 466.661 609.706 466.746 609.956 466.746C610.206 466.746 610.378 466.661 610.472 466.492C610.568 466.32 610.616 466.13 610.616 465.922V465.5C610.616 465.292 610.571 465.102 610.479 464.93C610.388 464.755 610.214 464.668 609.956 464.668C609.709 464.668 609.535 464.755 609.437 464.93C609.338 465.104 609.288 465.294 609.288 465.5ZM608.706 472L614.206 464H615.183L609.683 472H608.706Z" fill="#41444C"/>
    <path d="M632.293 475V473.097L637.342 468.146C637.825 467.659 638.228 467.225 638.55 466.847C638.872 466.468 639.113 466.101 639.274 465.746C639.435 465.391 639.516 465.012 639.516 464.609C639.516 464.15 639.411 463.757 639.203 463.43C638.995 463.099 638.708 462.843 638.344 462.663C637.979 462.483 637.565 462.393 637.101 462.393C636.623 462.393 636.204 462.493 635.844 462.692C635.484 462.886 635.205 463.163 635.006 463.523C634.812 463.883 634.714 464.311 634.714 464.808H632.207C632.207 463.885 632.418 463.082 632.839 462.401C633.261 461.719 633.841 461.191 634.58 460.817C635.323 460.443 636.175 460.256 637.136 460.256C638.112 460.256 638.969 460.438 639.707 460.803C640.446 461.167 641.019 461.667 641.426 462.301C641.838 462.936 642.044 463.66 642.044 464.474C642.044 465.019 641.94 465.554 641.732 466.08C641.523 466.605 641.156 467.187 640.631 467.827C640.11 468.466 639.378 469.24 638.436 470.149L635.929 472.699V472.798H642.264V475H632.293ZM649.771 475.199C648.824 475.199 647.977 475.021 647.229 474.666C646.481 474.306 645.886 473.814 645.446 473.189C645.01 472.564 644.778 471.849 644.75 471.044H647.307C647.354 471.641 647.612 472.128 648.081 472.507C648.55 472.881 649.113 473.068 649.771 473.068C650.287 473.068 650.747 472.95 651.149 472.713C651.552 472.476 651.869 472.147 652.101 471.726C652.333 471.304 652.446 470.824 652.442 470.284C652.446 469.735 652.33 469.247 652.094 468.821C651.857 468.395 651.533 468.061 651.121 467.82C650.709 467.573 650.235 467.45 649.7 467.45C649.265 467.446 648.836 467.526 648.415 467.692C647.993 467.857 647.66 468.075 647.413 468.345L645.034 467.955L645.794 460.455H654.232V462.656H647.974L647.555 466.513H647.641C647.911 466.196 648.292 465.933 648.784 465.724C649.277 465.511 649.816 465.405 650.403 465.405C651.284 465.405 652.07 465.613 652.761 466.03C653.453 466.442 653.997 467.01 654.395 467.734C654.793 468.459 654.991 469.287 654.991 470.22C654.991 471.181 654.769 472.038 654.324 472.791C653.884 473.539 653.27 474.129 652.484 474.56C651.703 474.986 650.799 475.199 649.771 475.199ZM662.428 475.199C661.481 475.199 660.633 475.021 659.885 474.666C659.137 474.306 658.543 473.814 658.102 473.189C657.667 472.564 657.435 471.849 657.406 471.044H659.963C660.01 471.641 660.268 472.128 660.737 472.507C661.206 472.881 661.769 473.068 662.428 473.068C662.944 473.068 663.403 472.95 663.805 472.713C664.208 472.476 664.525 472.147 664.757 471.726C664.989 471.304 665.103 470.824 665.098 470.284C665.103 469.735 664.987 469.247 664.75 468.821C664.513 468.395 664.189 468.061 663.777 467.82C663.365 467.573 662.892 467.45 662.357 467.45C661.921 467.446 661.492 467.526 661.071 467.692C660.65 467.857 660.316 468.075 660.07 468.345L657.69 467.955L658.45 460.455H666.888V462.656H660.631L660.212 466.513H660.297C660.567 466.196 660.948 465.933 661.44 465.724C661.933 465.511 662.473 465.405 663.06 465.405C663.94 465.405 664.726 465.613 665.418 466.03C666.109 466.442 666.653 467.01 667.051 467.734C667.449 468.459 667.648 469.287 667.648 470.22C667.648 471.181 667.425 472.038 666.98 472.791C666.54 473.539 665.927 474.129 665.141 474.56C664.359 474.986 663.455 475.199 662.428 475.199ZM671.151 475.156C670.72 475.156 670.351 475.005 670.043 474.702C669.735 474.399 669.584 474.029 669.588 473.594C669.584 473.168 669.735 472.803 670.043 472.5C670.351 472.197 670.72 472.045 671.151 472.045C671.568 472.045 671.93 472.197 672.238 472.5C672.55 472.803 672.709 473.168 672.713 473.594C672.709 473.883 672.633 474.145 672.486 474.382C672.344 474.619 672.155 474.808 671.918 474.95C671.686 475.088 671.43 475.156 671.151 475.156ZM680.1 475.199C679.404 475.194 678.724 475.073 678.061 474.837C677.399 474.595 676.802 474.205 676.272 473.665C675.741 473.12 675.32 472.398 675.007 471.499C674.695 470.594 674.541 469.474 674.546 468.139C674.546 466.894 674.678 465.784 674.944 464.808C675.209 463.833 675.59 463.009 676.087 462.337C676.584 461.66 677.183 461.143 677.884 460.788C678.589 460.433 679.378 460.256 680.249 460.256C681.163 460.256 681.972 460.436 682.678 460.795C683.388 461.155 683.961 461.648 684.397 462.273C684.832 462.893 685.102 463.594 685.206 464.375H682.614C682.481 463.816 682.209 463.371 681.797 463.04C681.39 462.704 680.874 462.536 680.249 462.536C679.24 462.536 678.464 462.973 677.919 463.849C677.38 464.725 677.107 465.928 677.103 467.457H677.202C677.434 467.041 677.735 466.683 678.104 466.385C678.473 466.087 678.89 465.857 679.354 465.696C679.823 465.53 680.318 465.447 680.838 465.447C681.691 465.447 682.455 465.651 683.132 466.058C683.814 466.465 684.354 467.027 684.752 467.741C685.15 468.452 685.346 469.266 685.341 470.185C685.346 471.141 685.128 472 684.688 472.763C684.248 473.52 683.634 474.117 682.848 474.553C682.062 474.988 681.146 475.204 680.1 475.199ZM680.086 473.068C680.602 473.068 681.063 472.943 681.471 472.692C681.878 472.441 682.2 472.102 682.436 471.676C682.673 471.25 682.789 470.772 682.784 470.241C682.789 469.721 682.676 469.25 682.444 468.828C682.216 468.407 681.901 468.073 681.499 467.827C681.096 467.58 680.637 467.457 680.121 467.457C679.738 467.457 679.38 467.531 679.049 467.678C678.717 467.824 678.428 468.028 678.182 468.288C677.936 468.544 677.742 468.842 677.6 469.183C677.462 469.519 677.391 469.879 677.387 470.263C677.391 470.769 677.51 471.236 677.742 471.662C677.974 472.088 678.293 472.429 678.701 472.685C679.108 472.94 679.569 473.068 680.086 473.068ZM692.799 475.199C691.852 475.199 691.004 475.021 690.256 474.666C689.508 474.306 688.914 473.814 688.473 473.189C688.038 472.564 687.806 471.849 687.777 471.044H690.334C690.382 471.641 690.64 472.128 691.108 472.507C691.577 472.881 692.141 473.068 692.799 473.068C693.315 473.068 693.774 472.95 694.176 472.713C694.579 472.476 694.896 472.147 695.128 471.726C695.36 471.304 695.474 470.824 695.469 470.284C695.474 469.735 695.358 469.247 695.121 468.821C694.884 468.395 694.56 468.061 694.148 467.82C693.736 467.573 693.263 467.45 692.728 467.45C692.292 467.446 691.864 467.526 691.442 467.692C691.021 467.857 690.687 468.075 690.441 468.345L688.061 467.955L688.821 460.455H697.259V462.656H691.002L690.583 466.513H690.668C690.938 466.196 691.319 465.933 691.811 465.724C692.304 465.511 692.844 465.405 693.431 465.405C694.311 465.405 695.097 465.613 695.789 466.03C696.48 466.442 697.025 467.01 697.422 467.734C697.82 468.459 698.019 469.287 698.019 470.22C698.019 471.181 697.796 472.038 697.351 472.791C696.911 473.539 696.298 474.129 695.512 474.56C694.73 474.986 693.826 475.199 692.799 475.199ZM707.731 471.577L707.724 468.473H708.136L712.056 464.091H715.061L710.238 469.46H709.706L707.731 471.577ZM705.387 475V460.455H707.958V475H705.387ZM712.234 475L708.683 470.036L710.416 468.224L715.309 475H712.234ZM719.949 475L715.844 460.455H718.678L721.298 471.143H721.433L724.232 460.455H726.81L729.615 471.151H729.743L732.364 460.455H735.197L731.092 475H728.493L725.581 464.794H725.467L722.548 475H719.949Z" fill="#1A1C22"/>
    <path fill-rule="evenodd" clip-rule="evenodd" d="M776.293 461.293C776.683 460.902 777.317 460.902 777.707 461.293L783.707 467.293C784.098 467.683 784.098 468.317 783.707 468.707L777.707 474.707C777.317 475.098 776.683 475.098 776.293 474.707C775.902 474.317 775.902 473.683 776.293 473.293L781.586 468L776.293 462.707C775.902 462.317 775.902 461.683 776.293 461.293Z" fill="#60636C"/>
    <g clip-path="url(#clip0_1_1946)">
        <circle cx="555" cy="333" r="27.9999" fill="#008834"/>
        <path d="M554.328 339.522L554.296 339.334C554.259 338.612 554.089 337.238 554.089 335.586L554.076 335.402V335.274C554.14 331.889 560.341 328.001 567.856 325.926L567.9 325.796C567.77 325.516 567.565 325.04 567.426 324.801C567.345 324.666 567.284 324.485 567.143 324.414C567.077 324.381 566.706 324.489 566.527 324.54C564.018 325.281 559.262 326.948 554.291 331.529C551.945 333.7 550.051 335.912 547.795 337.883C547.795 337.883 544.118 341.587 541.645 341.749C541.645 341.749 541.166 341.812 540.61 341.56C539.745 341.177 538.254 339.488 537.563 338.269C536.286 339.097 535.207 340.867 535.168 340.947C535.121 341.024 535.041 341.205 534.99 341.288C534.936 341.37 534.496 341.5 534.348 341.372L534.369 341.15C534.616 339.725 534.702 339.428 534.702 339.428C535.153 338.293 535.905 337.33 536.728 336.489L536.635 336.252C536.142 334.929 536.066 333.656 536.066 332.403C536.24 329.312 537.258 327.102 538.652 326.276C538.652 326.276 540.361 325.289 541.633 324.617C541.633 324.617 542.021 324.289 542.734 324.33C543.444 324.371 544.509 324.963 546.015 326.221C547.509 327.491 548.989 328.904 549.211 330.01C549.211 330.01 549.335 330.466 549.13 330.891L547.487 333.328C547.116 333.876 545.107 334.294 542.111 335.738C542.111 335.738 541.84 335.854 541.755 335.895C541.755 335.895 542.258 336.6 542.824 337.105C542.824 337.105 542.992 337.332 543.368 337.438C544.069 337.641 545.221 337.112 547.809 334.668C548.549 333.968 551.415 331.121 553.508 329.375C553.508 329.375 559.047 324.407 564.425 322.895C564.425 322.895 565.343 322.603 566.044 322.789C567.353 323.139 568.62 323.671 569.401 323.968C569.982 324.265 570.334 324.509 570.827 325.178C573.192 324.704 575.28 324.422 577.929 324.212L578.112 324.2L579.274 324.637C579.738 324.808 579.748 324.958 579.53 325.023C579.469 325.04 574.909 325.687 571.64 326.747C572.475 328.8 572.804 330.573 572.841 333.905C572.89 338.52 570.976 345.951 563.49 346.057C560.326 346.101 556.574 342.976 554.755 340.452C554.755 340.452 554.404 339.93 554.333 339.515M562.238 341.751L562.341 341.761C567.192 341.981 568.861 336.508 568.976 332.589C568.976 330.86 568.805 329.155 568.52 327.747C561.405 330.495 556.913 333.929 555.436 336.936C557.14 339.445 559.899 341.616 562.231 341.754H562.238V341.751ZM540.602 333.859C542.072 333.115 545.478 331.964 546.545 331.618L546.576 331.58C545.998 330.739 545.19 329.877 544.091 329.041C544.091 329.041 541.735 327.211 540.744 326.745L540.715 326.728C540.29 327.721 539.997 329.003 539.982 329.911C539.982 329.911 539.782 331.92 540.602 333.859Z" fill="#F7F7F9"/>
    </g>
    <path d="M400.657 217.896L395 212.037L400.657 206.178" stroke="#56A3F0" stroke-width="2" stroke-linecap="round"/>
    <path d="M758.9 163.828L753.243 169.485L747.586 163.828" stroke="#DB835E" stroke-width="2" stroke-linecap="round"/>
    <path d="M411.657 404.753L406 398.895L411.657 393.036" stroke="#24A37D" stroke-width="2" stroke-linecap="round"/>
    <defs>
        <linearGradient id="paint0_linear_1_1946" x1="555" y1="0" x2="555" y2="376" gradientUnits="userSpaceOnUse">
            <stop stop-color="#AEC3ED"/>
            <stop offset="1" stop-color="#D7E2F6"/>
        </linearGradient>
        <clipPath id="clip0_1_1946">
            <path d="M527 333C527 317.536 539.536 305 555 305C570.464 305 583 317.536 583 333C583 348.464 570.464 361 555 361C539.536 361 527 348.464 527 333Z" fill="white"/>
        </clipPath>
    </defs>
</svg>
